HIERARCHY
ROOT Pelvis
{
	OFFSET 0.000000 0.000000 0.000000
	CHANNELS 6 Xposition Yposition Zposition Xrotation Yrotation Zrotation
	JOINT LeftUpLeg_virtual
	{
		OFFSET 0.000000 0.000000 0.000000
		CHANNELS 3 Xrotation Yrotation Zrotation
		JOINT LeftUpLeg
		{
			OFFSET 18.735201 -5.666702 -4.541200
			CHANNELS 3 Xrotation Yrotation Zrotation
			JOINT LeftLeg
			{
				OFFSET -0.021200 -31.938179 0.493100
				CHANNELS 3 Xrotation Yrotation Zrotation
				JOINT LeftFoot
				{
					OFFSET 0.021200 -31.938179 -4.336299
					CHANNELS 3 Xrotation Yrotation Zrotation
					JOINT LeftToeBase
					{
						OFFSET 0.943001 -26.722000 15.023500
						CHANNELS 3 Xrotation Yrotation Zrotation
						End Site
						{
							OFFSET 0 0 0
						}
					}
				}
			}
		}
	}
	JOINT RightUpLeg_virtual
	{
		OFFSET 0.000000 0.000000 0.000000
		CHANNELS 3 Xrotation Yrotation Zrotation
		JOINT RightUpLeg
		{
			OFFSET -18.735201 -5.666702 -4.541200
			CHANNELS 3 Xrotation Yrotation Zrotation
			JOINT RightLeg
			{
				OFFSET 0.018946 -31.938133 0.493100
				CHANNELS 3 Xrotation Yrotation Zrotation
				JOINT RightFoot
				{
					OFFSET -0.018946 -31.938126 -4.336299
					CHANNELS 3 Xrotation Yrotation Zrotation
					JOINT RightToeBase
					{
						OFFSET -0.943001 -26.722004 15.023500
						CHANNELS 3 Xrotation Yrotation Zrotation
						End Site
						{
							OFFSET 0 0 0
						}
					}
				}
			}
		}
	}
	JOINT Hips_virtual
	{
		OFFSET 0.000000 0.000000 0.000000
		CHANNELS 3 Xrotation Yrotation Zrotation
		JOINT Hips
		{
			OFFSET -0.000000 -0.000000 -0.000000
			CHANNELS 3 Xrotation Yrotation Zrotation
			JOINT Spine
			{
				OFFSET 0.000000 10.199997 -0.299500
				CHANNELS 3 Xrotation Yrotation Zrotation
				JOINT Spine1
				{
					OFFSET 0.000000 11.900002 -1.516600
					CHANNELS 3 Xrotation Yrotation Zrotation
					JOINT Spine2
					{
						OFFSET 0.000000 13.600006 -2.842500
						CHANNELS 3 Xrotation Yrotation Zrotation
						JOINT Neck_virtual
						{
							OFFSET 0.000000 0.000000 0.000000
							CHANNELS 3 Xrotation Yrotation Zrotation
							JOINT Neck
							{
								OFFSET 0.000000 9.624100 -2.890100
								CHANNELS 3 Xrotation Yrotation Zrotation
								JOINT Head
								{
									OFFSET 0.000000 14.068802 -1.351900
									CHANNELS 3 Xrotation Yrotation Zrotation
									End Site
									{
										OFFSET 0 0 0
									}
								}
							}
						}
						JOINT LeftShoulder_virtual
						{
							OFFSET 0.000000 0.000000 0.000000
							CHANNELS 3 Xrotation Yrotation Zrotation
							JOINT LeftShoulder
							{
								OFFSET 15.263000 10.923401 -0.547700
								CHANNELS 3 Xrotation Yrotation Zrotation
								JOINT LeftArm
								{
									OFFSET 25.438599 -2.830597 -13.032500
									CHANNELS 3 Xrotation Yrotation Zrotation
									JOINT LeftForeArm
									{
										OFFSET 29.960503 0.000000 0.000000
										CHANNELS 3 Xrotation Yrotation Zrotation
										JOINT LeftHand
										{
											OFFSET 27.849251 0.000000 0.000000
											CHANNELS 3 Xrotation Yrotation Zrotation
											End Site
											{
												OFFSET 0 0 0
											}
										}
									}
								}
							}
						}
						JOINT RightShoulder_virtual
						{
							OFFSET 0.000000 0.000000 0.000000
							CHANNELS 3 Xrotation Yrotation Zrotation
							JOINT RightShoulder
							{
								OFFSET -15.263000 10.923401 -0.547700
								CHANNELS 3 Xrotation Yrotation Zrotation
								JOINT RightArm
								{
									OFFSET -25.438599 -2.830597 -13.032500
									CHANNELS 3 Xrotation Yrotation Zrotation
									JOINT RightForeArm
									{
										OFFSET -29.960503 0.000000 0.000000
										CHANNELS 3 Xrotation Yrotation Zrotation
										JOINT RightHand
										{
											OFFSET -27.849251 0.000000 0.000000
											CHANNELS 3 Xrotation Yrotation Zrotation
											End Site
											{
												OFFSET 0 0 0
											}
										}
									}
								}
							}
						}
					}
				}
			}
		}
	}
}
MOTION
Frames: 11
Frame Time: 0.03333333
-4.959816 92.101074 0.400251 0.000000 0.000000 0.000000 3.076602 -56.273874 -3.147199 -37.761760 -2.371523 9.276374 35.758349 -1.291861 0.676402 -12.892981 -1.598218 -4.827943 0.000000 0.000000 0.000000 19.079046 -57.928767 14.592539 -21.273712 -23.888199 -15.503708 34.221775 4.496340 -3.578418 -16.234993 2.299581 8.449953 0.000000 0.000000 0.000000 -3.382737 -34.180978 -0.733593 -6.452881 -45.248808 -8.544934 7.416347 -0.255598 1.219651 2.175050 -0.068234 0.531340 0.000000 0.000000 0.000000 1.756750 1.896874 -0.085421 -0.908551 1.674839 -0.392982 0.000000 0.000000 0.000000 3.296152 1.045085 0.904887 1.681407 0.317530 -3.886102 5.924476 -27.149066 -49.678934 15.981763 -61.745354 6.343807 0.000000 0.000000 0.000000 3.430730 -0.295893 1.360034 1.644869 6.086306 10.797703 4.080935 13.159285 53.060738 7.059585 59.793593 -0.094015 0.000000 0.000000 0.000000 
-4.063487 92.316284 1.307289 0.000000 0.000000 0.000000 3.059040 -58.475934 -3.322895 -37.686822 -2.907335 8.889995 34.899678 -1.430512 0.799767 -13.311469 -1.778680 -4.751504 0.000000 0.000000 0.000000 18.254353 -59.075727 14.985167 -22.873460 -24.142468 -15.153967 34.354602 5.075869 -4.005117 -15.828591 3.226558 8.010034 0.000000 0.000000 0.000000 -4.934705 -36.516452 -1.619208 -4.618864 -44.257160 -7.096569 6.923071 -0.602117 0.993188 1.918108 0.105792 0.744714 0.000000 0.000000 0.000000 1.869401 1.860026 -0.325310 -0.801002 1.841956 -0.456678 0.000000 0.000000 0.000000 2.519574 1.030308 1.107453 2.115592 1.618647 -3.638244 8.196149 -29.847650 -50.741605 20.790686 -64.139943 9.322356 0.000000 0.000000 0.000000 3.304800 -0.270516 1.276095 2.043098 6.135279 11.068494 5.333506 11.454719 52.171908 6.594368 60.122563 0.117846 0.000000 0.000000 0.000000 
-4.208564 92.312653 -0.210014 0.000000 0.000000 0.000000 3.884580 -59.344263 -3.003921 -37.350415 -2.884109 8.908627 35.275864 -1.286578 1.277652 -13.064354 -1.854390 -3.976636 0.000000 0.000000 0.000000 22.221915 -61.963087 18.875475 -21.847603 -25.568996 -14.504644 34.155980 5.122763 -4.925375 -16.020272 3.786784 6.448907 0.000000 0.000000 0.000000 -2.182995 -37.544747 0.608971 -6.747858 -43.127720 -7.485402 7.969093 -0.797351 0.515199 1.512451 0.036275 1.046646 0.000000 0.000000 0.000000 2.399420 1.632766 -0.267911 -0.648540 1.926474 -0.492193 0.000000 0.000000 0.000000 1.826537 0.959276 1.193666 1.824068 0.504676 -4.155262 8.725756 -33.903225 -49.374365 25.234399 -66.613196 13.319426 0.000000 0.000000 0.000000 3.098729 -0.387873 1.355015 2.465170 4.905485 11.315578 5.725150 8.981922 52.610929 5.281086 59.254562 0.794901 0.000000 0.000000 0.000000 
-3.719122 92.180031 0.143135 0.000000 0.000000 0.000000 6.490091 -57.996557 -0.562190 -36.469542 -2.519521 10.548720 35.928646 -1.578448 1.368291 -12.423311 -2.215978 -4.060118 0.000000 0.000000 0.000000 21.221379 -62.203407 17.748293 -22.288396 -25.407873 -15.072202 33.532537 5.108121 -4.980055 -16.213028 3.852141 6.189104 0.000000 0.000000 0.000000 -3.297690 -37.655560 -0.370973 -1.494074 -43.287000 -6.671215 6.697897 -0.956685 0.829411 1.553329 0.451028 0.705714 0.000000 0.000000 0.000000 2.695254 1.505583 -0.426471 -0.546408 1.875332 -0.613761 0.000000 0.000000 0.000000 2.239102 0.926732 0.972651 1.576459 1.395604 -4.053359 8.600165 -35.313550 -49.274064 25.432868 -67.734501 13.498646 0.000000 0.000000 0.000000 3.191838 -0.104472 1.307136 2.080860 5.436649 12.032374 4.578410 9.206916 52.229879 4.473309 60.129092 1.423883 0.000000 0.000000 0.000000 
-4.292015 91.803780 0.704372 0.000000 0.000000 0.000000 5.207939 -60.106915 -2.374012 -37.147623 -2.666885 9.258300 35.681642 -1.165651 1.552239 -12.490473 -1.899659 -3.508635 0.000000 0.000000 0.000000 21.983056 -65.226005 18.322117 -23.425169 -26.140621 -16.369581 32.562999 5.582063 -5.329746 -16.958631 4.478697 5.791606 0.000000 0.000000 0.000000 -2.107289 -36.817370 -0.175364 -4.179671 -43.095222 -8.630045 6.980194 -0.833120 0.284852 0.889202 0.312164 0.937573 0.000000 0.000000 0.000000 2.936278 1.270457 -0.349698 -0.670429 1.972415 -0.589884 0.000000 0.000000 0.000000 2.035679 0.574632 1.026520 1.339109 1.813575 -4.557311 6.754199 -36.524317 -49.244318 25.607477 -70.093758 13.970352 0.000000 0.000000 0.000000 3.213268 -0.202680 1.565181 2.648505 5.784824 11.951040 5.790965 7.839734 53.549281 3.195889 62.534856 3.151832 0.000000 0.000000 0.000000 
-4.828330 92.419365 0.548311 0.000000 0.000000 0.000000 4.677791 -59.500032 -2.536051 -37.623353 -2.615985 9.452662 35.947620 -1.105060 1.839376 -12.196422 -1.991953 -3.048906 0.000000 0.000000 0.000000 21.718040 -65.933783 18.484199 -23.815024 -26.372931 -16.186145 32.639025 5.265293 -5.020983 -16.650592 4.061061 6.029210 0.000000 0.000000 0.000000 -4.664674 -40.862215 -0.779375 -2.150215 -37.873419 -7.686872 6.511173 -1.317581 0.595495 1.508170 0.651955 1.147904 0.000000 0.000000 0.000000 2.355869 1.354717 -0.362239 -0.610675 1.918179 -0.621271 0.000000 0.000000 0.000000 2.118482 0.561805 0.860425 1.708510 1.541123 -4.266850 10.024950 -36.466892 -47.328648 29.869408 -69.776017 17.240157 0.000000 0.000000 0.000000 3.455049 -0.154301 1.523758 3.021586 5.557371 11.460417 4.977604 6.473739 53.648144 3.371547 60.015199 3.166572 0.000000 0.000000 0.000000 
-3.819536 92.602142 1.484169 0.000000 0.000000 0.000000 1.959736 -58.883553 -4.344963 -39.840541 -2.492273 9.215480 36.262530 -1.368621 1.876886 -12.027609 -2.257168 -3.231470 0.000000 0.000000 0.000000 19.982666 -66.263797 18.010266 -25.535719 -26.252669 -15.807590 32.170833 5.019126 -4.633486 -16.823495 3.622558 6.405990 0.000000 0.000000 0.000000 -5.064157 -39.666303 -1.009923 -3.196963 -38.731687 -9.282271 7.550949 -0.602593 0.371211 2.418189 0.255016 1.063570 0.000000 0.000000 0.000000 2.207372 1.101390 -0.245891 -0.833771 1.839819 -0.640910 0.000000 0.000000 0.000000 2.987729 0.807943 0.925916 2.505843 1.997530 -4.157585 9.653350 -37.518939 -47.807943 30.173180 -71.804133 17.211382 0.000000 0.000000 0.000000 3.704216 -0.106956 1.563114 3.428333 4.756109 11.558669 5.521008 6.118109 52.311726 3.563204 60.500327 2.531079 0.000000 0.000000 0.000000 
-3.609960 92.221046 0.299133 0.000000 0.000000 0.000000 1.467658 -57.159900 -4.378087 -40.226286 -2.232226 9.475181 36.309173 -1.651595 1.773978 -11.866304 -2.465407 -3.642932 0.000000 0.000000 0.000000 21.857980 -67.297075 20.361648 -26.017212 -26.759361 -15.489921 32.246088 5.178615 -4.311182 -16.982430 3.586855 7.062748 0.000000 0.000000 0.000000 -6.825663 -42.601280 -2.215623 -2.579486 -34.216618 -9.736590 7.900894 -0.466137 0.926194 1.729934 0.401207 1.081460 0.000000 0.000000 0.000000 2.505145 1.192370 -0.382185 -0.678629 1.870597 -0.647369 0.000000 0.000000 0.000000 2.854782 0.522643 1.007954 2.151526 2.257984 -3.919353 10.277532 -38.361348 -46.776451 34.458861 -73.986248 22.074584 0.000000 0.000000 0.000000 4.131282 0.174504 1.498321 3.251440 5.394835 12.240409 5.790510 4.284719 53.118231 2.711984 61.251122 3.495852 0.000000 0.000000 0.000000 
-3.557143 91.683548 -0.396591 0.000000 0.000000 0.000000 0.873674 -54.619052 -5.260939 -40.543183 -1.323588 9.163824 36.742787 -1.531451 1.746417 -11.400961 -2.339106 -3.633240 0.000000 0.000000 0.000000 21.353728 -65.471837 19.644570 -24.859577 -26.331134 -14.885644 31.783425 5.200664 -4.664125 -17.278439 3.810014 6.418873 0.000000 0.000000 0.000000 -6.190995 -42.743215 -1.321363 -2.921283 -34.286870 -9.141367 7.754709 -0.754994 0.755214 1.639432 0.373040 1.240057 0.000000 0.000000 0.000000 2.320253 1.187841 -0.388767 -0.708449 1.915375 -0.686057 0.000000 0.000000 0.000000 3.316560 0.598421 1.032620 2.821848 2.442786 -3.572298 11.878044 -38.181068 -45.551645 33.530939 -72.560856 20.525173 0.000000 0.000000 0.000000 4.080740 0.172195 1.552002 3.561803 5.565471 12.036900 4.811902 4.730806 53.538540 2.382668 61.856167 3.959223 0.000000 0.000000 0.000000 
-3.638156 92.117767 -0.086264 0.000000 0.000000 0.000000 0.620969 -55.329382 -5.597737 -40.633509 -1.460073 8.890454 37.273432 -1.594629 1.688818 -10.895978 -2.409027 -3.784855 0.000000 0.000000 0.000000 22.007817 -66.375170 20.288920 -24.884969 -26.702761 -14.982283 31.587805 5.088633 -4.616053 -17.331194 3.688392 6.372870 0.000000 0.000000 0.000000 -6.362446 -43.409906 -1.168767 -2.501874 -34.779262 -9.147996 7.722011 -0.555646 0.629163 1.503634 0.478410 1.200290 0.000000 0.000000 0.000000 2.421592 1.274981 -0.325008 -0.625377 1.974929 -0.742565 0.000000 0.000000 0.000000 3.329209 0.629603 1.098130 2.958650 2.602468 -4.215005 11.921780 -37.952363 -45.789438 32.517120 -73.024626 19.478801 0.000000 0.000000 0.000000 4.307643 0.330911 1.709752 3.586239 5.597034 12.027695 5.077815 4.304250 55.030653 2.445978 62.298825 4.458729 0.000000 0.000000 0.000000 
-3.694823 92.140251 0.299454 0.000000 0.000000 0.000000 0.662906 -55.480479 -6.006001 -40.534318 -1.263400 8.563940 38.070587 -1.637342 1.640870 -10.248534 -2.456750 -3.957062 0.000000 0.000000 0.000000 20.746303 -65.415693 18.844454 -25.058168 -26.199815 -15.381434 31.843708 5.105877 -4.892087 -17.323088 3.833587 5.972198 0.000000 0.000000 0.000000 -7.009322 -42.648435 -1.673569 -2.805138 -35.521936 -10.045306 8.033399 -0.429062 0.234378 1.460055 0.597028 1.150390 0.000000 0.000000 0.000000 2.652241 1.275481 -0.351851 -0.479288 2.033525 -0.722864 0.000000 0.000000 0.000000 3.377055 0.626289 1.183083 2.869101 3.038531 -3.925793 10.638144 -37.669893 -46.316677 33.986898 -73.784198 21.168040 0.000000 0.000000 0.000000 4.101908 0.386036 1.705049 3.558196 5.410171 12.702147 5.058409 3.261431 55.768676 1.399027 62.796179 5.424027 0.000000 0.000000 0.000000 
